<svg width="21" height="20" viewBox="0 0 21 20" fill="none" xmlns="http://www.w3.org/2000/svg">
<g clip-path="url(#clip0_706_509)">
<path d="M10.5001 0.130981C5.05913 0.130981 0.631104 4.55901 0.631104 9.99998C0.631104 15.441 5.05913 19.869 10.5001 19.869C15.9411 19.869 20.3691 15.441 20.3691 9.99998C20.3691 4.55901 15.9411 0.130981 10.5001 0.130981ZM10.5001 18.4798C5.84055 18.4798 2.02029 14.6885 2.02029 9.99998C2.02029 5.31148 5.81161 1.52017 10.5001 1.52017C15.1597 1.52017 18.9799 5.31148 18.9799 9.99998C18.9799 14.6885 15.1597 18.4798 10.5001 18.4798Z" fill="white"/>
<path d="M15.0437 9.21857H11.1945V5.36937C11.1945 4.99313 10.8761 4.67477 10.4999 4.67477C10.1236 4.67477 9.80527 4.99313 9.80527 5.36937V9.21857H5.95607C5.57983 9.21857 5.26147 9.53692 5.26147 9.91316C5.26147 10.2894 5.57983 10.6078 5.95607 10.6078H9.80527V14.457C9.80527 14.8332 10.1236 15.1515 10.4999 15.1515C10.8761 15.1515 11.1945 14.8332 11.1945 14.457V10.6078H15.0437C15.4199 10.6078 15.7382 10.2894 15.7382 9.91316C15.7382 9.53692 15.4199 9.21857 15.0437 9.21857Z" fill="white"/>
</g>
<defs>
<clipPath id="clip0_706_509">
<rect width="20" height="20" fill="white" transform="translate(0.5)"/>
</clipPath>
</defs>
</svg>
