<svg width="21" height="20" viewBox="0 0 21 20" fill="none" xmlns="http://www.w3.org/2000/svg">
<path d="M10.5 0C4.9868 0 0.5 4.4868 0.5 10C0.5 15.5132 4.9868 20 10.5 20C16.0132 20 20.5 15.5132 20.5 10C20.5 4.4868 16.0132 0 10.5 0ZM10.5 18.5924C5.77859 18.5924 1.90763 14.7507 1.90763 10C1.90763 5.24927 5.74927 1.40763 10.5 1.40763C15.2507 1.40763 19.0924 5.24927 19.0924 10C19.0924 14.7507 15.2214 18.5924 10.5 18.5924Z" fill="white"/>
<path d="M15.1042 9.20822H5.89595C5.51472 9.20822 5.19214 9.5308 5.19214 9.91203C5.19214 10.2933 5.51472 10.6158 5.89595 10.6158H15.1042C15.4854 10.6158 15.808 10.2933 15.808 9.91203C15.808 9.5308 15.4854 9.20822 15.1042 9.20822Z" fill="white"/>
</svg>
